<svg xmlns="http://www.w3.org/2000/svg" width="256" height="256" viewBox="0 0 256 256">
    <defs><linearGradient id="bgGradient" x1="14.644660940672615%" y1="14.64466094067263%" x2="85.35533905932738%" y2="85.35533905932738%">
      <stop offset="0%" stop-color="#fafafa"/>
      <stop offset="100%" stop-color="#a1a1aa"/>
    </linearGradient></defs>
    <rect x="0" y="0" width="256" height="256" rx="25.6" ry="25.6" fill="url(#bgGradient)" />
    <svg x="63.2" y="63.2" width="129.6" height="129.6" xmlns="http://www.w3.org/2000/svg"   viewBox="0 0 16 16"><path fill="#09090b" d="M9.5 3.25a2.25 2.25 0 1 1 3 2.122V6A2.5 2.5 0 0 1 10 8.5H6a1 1 0 0 0-1 1v1.128a2.251 2.251 0 1 1-1.5 0V5.372a2.25 2.25 0 1 1 1.5 0v1.836A2.5 2.5 0 0 1 6 7h4a1 1 0 0 0 1-1v-.628A2.25 2.25 0 0 1 9.5 3.25m-6 0a.75.75 0 1 0 1.5 0a.75.75 0 0 0-1.5 0m8.25-.75a.75.75 0 1 0 0 1.5a.75.75 0 0 0 0-1.5M4.25 12a.75.75 0 1 0 0 1.5a.75.75 0 0 0 0-1.5"/></svg>
  </svg>